<svg width="175" height="302" viewBox="0 0 175 302" fill="none" xmlns="http://www.w3.org/2000/svg">
<path d="M80.3417 212C95.9417 225.6 92.5085 254.852 90.3418 262.518C82.7416 249.718 71.1166 233.5 62.6166 228.5C56.6166 226.167 43.6166 222.314 35.8421 218.018C18.6165 208.5 13.1166 199.5 13.1166 199.5C-5.38335 173 0.116736 159 3.34166 145.518C16.3417 109.518 34.3417 104.518 50.8417 98.5182C61.6165 96.0001 68.6165 89.5001 70.8417 87.5183C76.0417 85.1183 85.1167 60.0001 86.1167 61.5001C87.3915 63.9819 88.8422 86.0182 90.3418 87.5183C88.5085 90.8516 73.9418 109.718 60.3417 122.518C46.7415 135.318 43.0084 154.185 42.8418 162.018C41.6418 199.218 60.8416 195 80.3417 212Z" fill="url(#paint0_linear_420_269)"/>
<path d="M58.6167 301.527H5.6167C9.2167 288.727 24.6167 280.333 31.6167 277C31.6167 277 52.1881 269.527 58.6167 262.027C70.6167 248.027 65 233.5 60 227.5C65 228.5 77.1667 238.667 79 241C85 247.5 85.6167 252.127 87.6167 258.527C89.6167 264.927 69.1167 289.861 58.6167 301.527Z" fill="url(#paint1_linear_420_269)"/>
<path d="M100.329 301.5H56.8288C55.1621 302.333 57.1286 297.7 78.3286 272.5C99.5286 247.3 72.4954 217.667 56.3288 206C16.7288 166 45.8288 124 65.3288 108C72.8288 102.333 86.4288 84.9 80.8288 60.5C75.2288 36.1 81.1621 23 84.8288 19.5C85.6288 28.7 95.4955 44.6667 100.329 51.5C119.929 75.5 109.117 112 92.6167 124C69.1167 140 58.3288 176 102.829 220.5C138.429 256.1 115.995 289.333 100.329 301.5Z" fill="url(#paint2_linear_420_269)"/>
<path d="M173.117 257.5C169.92 272.5 161.417 292.3 130.617 301.5H95.6167C96.0167 299.1 102.117 294 109.617 287C115.617 280 141.617 250.75 129.117 232C114.117 209.5 104.117 201.5 104.117 201.5C104.117 201.5 92.9738 195 85.1167 167.5C83.1167 160.5 84.1167 148.521 84.1167 142.5C84.1167 139 85.6167 128 88.6167 123.5C88.6167 123.5 92.9188 114.163 95.1167 110.5C96.6167 108 101.95 96.6667 104.117 91C107.117 81.5 105.617 63 97.1167 54.5C87.1167 44.5 80.1167 27 79.6167 19V0C83.6167 18 93.1167 20.5 98.1167 22C133.117 29 138.617 58 139.617 71.5C140.45 78.3333 136.617 96.2 116.617 113C96.6167 129.8 100.617 146.5 102.617 154C106.217 167.5 126.117 176.5 141.617 184.5C162.617 198.5 179.617 227 173.117 257.5Z" fill="url(#paint3_linear_420_269)"/>
<path d="M110.871 285.715C109.507 287.603 108.113 289.211 106.801 290.5C108.213 288.861 109.57 287.267 110.871 285.715C119.032 274.419 126.122 253.12 108.301 230.5C82.3006 197.5 72.3006 188 69.8006 166C67.8006 148.4 80.9503 130.333 88.617 123.5C82.617 138.333 79.3006 174.7 107.301 201.5C140.982 233.738 144.103 246.065 110.871 285.715Z" fill="#175485"/>
<defs>
<linearGradient id="paint0_linear_420_269" x1="46.5289" y1="86.5" x2="-16.3834" y2="245" gradientUnits="userSpaceOnUse">
<stop stop-color="#1B1A21"/>
<stop offset="0.354167" stop-color="#A2503B"/>
<stop offset="1" stop-color="#F9664C"/>
</linearGradient>
<linearGradient id="paint1_linear_420_269" x1="50.6167" y1="302" x2="72.1167" y2="222.5" gradientUnits="userSpaceOnUse">
<stop stop-color="#F6275D"/>
<stop offset="1" stop-color="#883249"/>
</linearGradient>
<linearGradient id="paint2_linear_420_269" x1="79.2308" y1="19.5" x2="79.2308" y2="301.589" gradientUnits="userSpaceOnUse">
<stop stop-color="#1B66A0"/>
<stop offset="0.3125" stop-color="#1DB7C6"/>
<stop offset="0.666667" stop-color="#1ADCF7"/>
<stop offset="1" stop-color="#26C1FB"/>
</linearGradient>
<linearGradient id="paint3_linear_420_269" x1="127.216" y1="0" x2="127.216" y2="301.5" gradientUnits="userSpaceOnUse">
<stop stop-color="#E43364"/>
<stop offset="0.390625" stop-color="#F31EAA"/>
<stop offset="1" stop-color="#6533D4"/>
</linearGradient>
</defs>
</svg>
